<svg width="1870" height="3034" xmlns="http://www.w3.org/2000/svg" xmlns:xlink="http://www.w3.org/1999/xlink" xml:space="preserve" overflow="hidden"><defs><clipPath id="clip0"><rect x="3391" y="1375" width="1870" height="3034"/></clipPath></defs><g clip-path="url(#clip0)" transform="translate(-3391 -1375)"><path d="M4329.5 1397.5 4674.5 1837.5 3984.5 1837.5 4329.5 1397.5Z" stroke="#000000" stroke-width="22.9167" stroke-linecap="butt" stroke-linejoin="miter" stroke-miterlimit="4" stroke-opacity="1" fill="none" fill-rule="evenodd"/><path d="M0 0 0.999672 866" stroke="#000000" stroke-width="41.25" stroke-linecap="butt" stroke-linejoin="miter" stroke-miterlimit="4" stroke-opacity="1" fill="none" fill-rule="evenodd" transform="matrix(1 0 0 -1 4328.5 3374.5)"/><path d="M4098.5 2169.5C4098.5 2079.48 4201.25 2006.5 4328 2006.5 4454.75 2006.5 4557.5 2079.48 4557.5 2169.5 4557.5 2259.52 4454.75 2332.5 4328 2332.5 4201.25 2332.5 4098.5 2259.52 4098.5 2169.5Z" stroke="#000000" stroke-width="22.9167" stroke-linecap="butt" stroke-linejoin="miter" stroke-miterlimit="4" stroke-opacity="1" fill="none" fill-rule="evenodd"/><path d="M941.782 294.164C898.276 283.18 839.774 275.588 779.079 271.607 490.54 252.663 212.018 417.018 0 499.823 200.934 316.179 460.607 159.908 700.247 73.1232 939.886-13.6369 1159.49-30.9103 1280.29 63.4914L941.782 294.164Z" stroke="#000000" stroke-width="22.9167" stroke-linecap="butt" stroke-linejoin="miter" stroke-miterlimit="4" stroke-opacity="1" fill="none" fill-rule="evenodd" transform="matrix(-0.638768 -0.769399 -0.769399 0.638768 5630.85 3084.29)"/><path d="M3990.22 1901.5 3842.5 3500.5 4813.5 3500.5 4666.37 1901.5 4663.35 1901.5 3990.22 1901.5Z" stroke="#000000" stroke-width="22.9167" stroke-linecap="butt" stroke-linejoin="miter" stroke-miterlimit="4" stroke-opacity="1" fill="none" fill-rule="evenodd"/><path d="M3990.22 3743.5 3842.5 3565.5 4813.5 3565.5 4666.37 3743.5 4663.35 3743.5 3990.22 3743.5Z" stroke="#000000" stroke-width="22.9167" stroke-linecap="butt" stroke-linejoin="miter" stroke-miterlimit="4" stroke-opacity="1" fill="none" fill-rule="evenodd"/><path d="M3852.38 2547.59C3816.14 2574.04 3772.93 2614.21 3731.09 2658.36 3532.21 2868.26 3480.75 3187.54 3409.03 3403.56 3396.09 3131.66 3441.72 2832.04 3528.02 2592.23 3614.34 2352.43 3741.33 2172.43 3891.13 2139.79L3852.38 2547.59Z" stroke="#000000" stroke-width="22.9167" stroke-linecap="butt" stroke-linejoin="miter" stroke-miterlimit="4" stroke-opacity="1" fill="none" fill-rule="evenodd"/><path d="M121.968 0C356.755 256.609 154.072 431.403 203.884 584L28.1791 582.486C53.0937 506.187 16.7451 422.562 4.07632 327.013-8.59242 231.464 2.40182 123.992 121.968 0Z" stroke="#000000" stroke-width="22.9167" stroke-linecap="butt" stroke-linejoin="miter" stroke-miterlimit="4" stroke-opacity="1" fill="none" fill-rule="evenodd" transform="matrix(1 -1.22465e-16 -1.22465e-16 -1 4210.5 4388.5)"/><path d="M87.0742 0C135.067 54.9586 184.199 121.028 191.027 197.371 198.251 278.236 163.373 352.625 152.589 402 128.074 401.925 105.477 401.87 82.8797 401.721 55.9966 401.535 29.1135 401.237 0 400.641 17.5947 336.619 11.9226 271.48 15.2543 206.192 18.6043 140.495 31.3346 74.463 87.0742 0Z" stroke="#000000" stroke-width="22.9167" stroke-linecap="butt" stroke-linejoin="miter" stroke-miterlimit="4" stroke-opacity="1" fill="none" fill-rule="evenodd" transform="matrix(1 -1.22465e-16 -1.22465e-16 -1 4493.5 4206.5)"/><path d="M4078.88 4206.5C4031.14 4151.54 3982.26 4085.47 3975.47 4009.13 3968.28 3928.26 4002.98 3853.88 4013.71 3804.5 4038.09 3804.57 4060.57 3804.63 4083.05 3804.78 4109.79 3804.97 4136.54 3805.26 4165.5 3805.86 4148 3869.88 4153.64 3935.02 4150.33 4000.31 4146.99 4066 4134.33 4132.04 4078.88 4206.5Z" stroke="#000000" stroke-width="22.9167" stroke-linecap="butt" stroke-linejoin="miter" stroke-miterlimit="4" stroke-opacity="1" fill="none" fill-rule="evenodd"/></g></svg>