<?xml version="1.0" encoding="UTF-8" standalone="no"?>
<!-- Created with Inkscape (http://www.inkscape.org/) -->

<svg
   width="225"
   height="200"
   viewBox="0 0 59.531252 52.916666"
   version="1.1"
   id="svg986"
   inkscape:version="1.1.2 (b8e25be8, 2022-02-05)"
   sodipodi:docname="heart-inkscape.svg"
   xmlns:inkscape="http://www.inkscape.org/namespaces/inkscape"
   xmlns:sodipodi="http://sodipodi.sourceforge.net/DTD/sodipodi-0.dtd"
   xmlns="http://www.w3.org/2000/svg"
   xmlns:svg="http://www.w3.org/2000/svg">
  <sodipodi:namedview
     id="namedview988"
     pagecolor="#ffffff"
     bordercolor="#666666"
     borderopacity="1.0"
     inkscape:pageshadow="2"
     inkscape:pageopacity="0.0"
     inkscape:pagecheckerboard="0"
     inkscape:document-units="mm"
     showgrid="true"
     width="225mm"
     borderlayer="true"
     inkscape:showpageshadow="false"
     units="px"
     inkscape:snap-bbox="true"
     inkscape:bbox-nodes="true"
     inkscape:snap-bbox-midpoints="false"
     showguides="true"
     inkscape:zoom="1.3782829"
     inkscape:cx="136.76438"
     inkscape:cy="123.70465"
     inkscape:window-width="1440"
     inkscape:window-height="769"
     inkscape:window-x="0"
     inkscape:window-y="25"
     inkscape:window-maximized="1"
     inkscape:current-layer="layer1">
    <inkscape:grid
       type="xygrid"
       id="grid990"
       dotted="true"
       spacingx="6.6145834"
       spacingy="6.6145834"
       snapvisiblegridlinesonly="true"
       empspacing="1" />
  </sodipodi:namedview>
  <defs
     id="defs983" />
  <g
     inkscape:label="Layer 1"
     inkscape:groupmode="layer"
     id="layer1">
    <path
       id="rect1277"
       style="stroke-width:3"
       d="M 7.9999999e-7,6.6145842 H 6.6145834 V 13.229167 H 7.9999999e-7 Z" />
    <path
       id="rect1277-3"
       style="stroke-width:3"
       d="m 26.458334,46.302084 h 6.614583 v 6.614583 h -6.614583 z" />
    <path
       id="rect1277-3-8"
       style="stroke-width:3"
       d="M 33.072917,39.6875 H 39.6875 v 6.614583 h -6.614583 z" />
    <path
       id="rect1277-3-4"
       style="stroke-width:3"
       d="m 39.6875,33.072917 h 6.614583 V 39.6875 H 39.6875 Z" />
    <path
       id="rect1277-3-80"
       style="stroke-width:3"
       d="m 46.302084,26.458333 h 6.614583 v 6.614583 h -6.614583 z" />
    <path
       id="rect1277-3-46"
       style="stroke-width:3"
       d="m 52.916667,19.84375 h 6.614583 v 6.614583 h -6.614583 z" />
    <path
       id="rect1277-3-0"
       style="stroke-width:3"
       d="M 52.916667,13.229167 H 59.53125 V 19.84375 H 52.916667 Z" />
    <path
       id="rect1277-3-3"
       style="stroke-width:3"
       d="m 52.916667,6.614583 h 6.614583 v 6.614583 h -6.614583 z" />
    <path
       id="rect1277-3-2"
       style="stroke-width:3"
       d="m 46.302084,0 h 6.614583 v 6.614583 h -6.614583 z" />
    <path
       id="rect1277-3-6"
       style="stroke-width:3"
       d="m 39.6875,0 h 6.614583 V 6.614583 H 39.6875 Z" />
    <path
       id="rect1277-3-9"
       style="stroke-width:3"
       d="M 33.072917,0 H 39.6875 v 6.614583 h -6.614583 z" />
    <path
       id="rect1277-3-41"
       style="stroke-width:3"
       d="m 26.458334,6.6145834 h 6.614583 v 6.6145826 h -6.614583 z" />
    <path
       id="rect1277-3-41-5"
       style="fill:#cd1e1e;fill-opacity:1;stroke-width:3"
       d="m 26.458334,33.072917 h 6.614583 V 39.6875 h -6.614583 z" />
    <path
       id="rect1277-3-41-5-7"
       style="fill:#cd1e1e;fill-opacity:1;stroke-width:3"
       d="m 26.458333,26.458334 h 6.614583 v 6.614582 h -6.614583 z" />
    <path
       id="rect1277-3-41-5-84"
       style="fill:#cd1e1e;fill-opacity:1;stroke-width:3"
       d="m 26.458333,19.84375 h 6.614583 v 6.614583 h -6.614583 z" />
    <path
       id="rect1277-3-41-5-17"
       style="fill:#cd1e1e;fill-opacity:1;stroke-width:3"
       d="m 26.458333,13.229167 h 6.614583 v 6.614583 h -6.614583 z" />
    <path
       id="rect1277-3-41-5-18"
       style="fill:#cd1e1e;fill-opacity:1;stroke-width:3"
       d="m 19.84375,13.229167 h 6.614583 V 19.84375 H 19.84375 Z" />
    <path
       id="rect1277-3-41-5-78"
       style="fill:#cd1e1e;fill-opacity:1;stroke-width:3"
       d="m 19.84375,6.614583 h 6.614583 v 6.614583 H 19.84375 Z" />
    <path
       id="rect1277-3-41-5-77"
       style="fill:#cd1e1e;fill-opacity:1;stroke-width:3"
       d="m 13.229166,6.614583 h 6.614583 v 6.614583 h -6.614583 z" />
    <path
       id="rect1277-3-41-5-44"
       style="fill:#a41818;fill-opacity:1;stroke-width:3"
       d="m 6.614583,6.614583 h 6.614583 v 6.614583 H 6.614583 Z" />
    <path
       id="rect1277-3-41-5-9"
       style="fill:#a41818;fill-opacity:1;stroke-width:3"
       d="m 6.614583,13.229167 h 6.614583 V 19.84375 H 6.614583 Z" />
    <path
       id="rect1277-3-41-5-15"
       style="fill:#a41818;fill-opacity:1;stroke-width:3"
       d="m 6.614583,19.84375 h 6.614583 v 6.614583 H 6.614583 Z" />
    <path
       id="rect1277-3-41-5-55"
       style="fill:#cd1e1e;fill-opacity:1;stroke-width:3"
       d="m 13.229166,19.84375 h 6.614583 v 6.614583 h -6.614583 z" />
    <path
       id="rect1277-3-41-5-82"
       style="fill:#a41818;fill-opacity:1;stroke-width:3"
       d="m 13.229166,26.458334 h 6.614583 v 6.614582 h -6.614583 z" />
    <path
       id="rect1277-3-41-5-98"
       style="fill:#cd1e1e;fill-opacity:1;stroke-width:3"
       d="m 19.84375,26.458334 h 6.614583 v 6.614582 H 19.84375 Z" />
    <path
       id="rect1277-3-41-5-20"
       style="fill:#a41818;fill-opacity:1;stroke-width:3"
       d="m 19.84375,33.072917 h 6.614583 V 39.6875 H 19.84375 Z" />
    <path
       id="rect1277-3-41-5-74"
       style="fill:#a41818;fill-opacity:1;stroke-width:3"
       d="m 26.458333,39.6875 h 6.614583 v 6.614583 h -6.614583 z" />
    <path
       id="rect1277-3-41-5-85"
       style="fill:#cd1e1e;fill-opacity:1;stroke-width:3"
       d="M 33.072916,33.072917 H 39.6875 V 39.6875 h -6.614584 z" />
    <path
       id="rect1277-3-41-5-830"
       style="fill:#cd1e1e;fill-opacity:1;stroke-width:3"
       d="M 33.072916,19.84375 H 39.6875 v 6.614583 h -6.614584 z" />
    <path
       id="rect1277-3-41-5-62"
       style="fill:#cd1e1e;fill-opacity:1;stroke-width:3"
       d="m 39.6875,19.84375 h 6.614583 v 6.614583 H 39.6875 Z" />
    <path
       id="rect1277-3-41-5-25"
       style="fill:#cd1e1e;fill-opacity:1;stroke-width:3"
       d="m 39.6875,13.229167 h 6.614583 V 19.84375 H 39.6875 Z" />
    <path
       id="rect1277-3-41-5-22"
       style="fill:#e23838;fill-opacity:1;stroke-width:3"
       d="m 46.302083,13.229167 h 6.614583 v 6.614583 h -6.614583 z" />
    <path
       id="rect1277-3-41-5-71"
       style="fill:#e23838;fill-opacity:1;stroke-width:3"
       d="m 46.302083,6.614583 h 6.614583 v 6.614583 h -6.614583 z" />
    <path
       id="rect1277-3-41-5-52"
       style="fill:#e23838;fill-opacity:1;stroke-width:3"
       d="M 33.072916,6.614583 H 39.6875 v 6.614583 h -6.614584 z" />
    <path
       id="rect1277-3-41-5-4"
       style="fill:#cd1e1e;fill-opacity:1;stroke-width:3"
       d="m 33.072917,26.458334 h 6.614584 v 6.614583 h -6.614584 z" />
    <path
       id="rect1277-3-41-5-1"
       style="fill:#cd1e1e;fill-opacity:1;stroke-width:3"
       d="m 39.6875,26.458334 h 6.614583 v 6.614583 H 39.6875 Z" />
    <path
       id="rect1277-3-41-5-8"
       style="fill:#e23838;fill-opacity:1;stroke-width:3"
       d="m 46.302083,19.84375 h 6.614583 v 6.614583 h -6.614583 z" />
    <path
       id="rect1277-3-41-5-83"
       style="fill:#e23838;fill-opacity:1;stroke-width:3"
       d="m 39.6875,6.6145834 h 6.614583 V 13.229166 H 39.6875 Z" />
    <path
       id="rect1277-3-41-5-5"
       style="fill:#cd1e1e;fill-opacity:1;stroke-width:3"
       d="M 33.072916,13.229167 H 39.6875 v 6.614583 h -6.614584 z" />
    <path
       id="rect1277-3-41-5-2"
       style="fill:#cd1e1e;fill-opacity:1;stroke-width:3"
       d="m 13.229166,13.229167 h 6.614583 v 6.614583 h -6.614583 z" />
    <path
       id="rect1277-3-41-5-26"
       style="fill:#cd1e1e;fill-opacity:1;stroke-width:3"
       d="m 13.229166,13.229167 h 6.614583 v 6.614583 h -6.614583 z" />
    <path
       id="rect1277-3-41-5-6"
       style="fill:#cd1e1e;fill-opacity:1;stroke-width:3"
       d="m 19.843751,19.843751 h 6.614583 v 6.614583 h -6.614583 z" />
    <path
       id="rect1277-3-37"
       style="stroke-width:3"
       d="m 19.843751,0 h 6.614583 v 6.614583 h -6.614583 z" />
    <path
       id="rect1277-3-88"
       style="stroke-width:3"
       d="M 13.229167,0 H 19.84375 V 6.614583 H 13.229167 Z" />
    <path
       id="rect1277-3-38"
       style="stroke-width:3"
       d="m 6.614583,0 h 6.614583 V 6.614583 H 6.614583 Z" />
    <path
       id="rect1277-3-1"
       style="stroke-width:3"
       d="M 0,13.229167 H 6.614583 V 19.84375 H 0 Z" />
    <path
       id="rect1277-3-5"
       style="stroke-width:3"
       d="m 6.6145836,26.458334 h 6.6145834 v 6.614583 H 6.6145836 Z" />
    <path
       id="rect1277-3-5-4"
       style="stroke-width:3"
       d="m 0,19.84375 h 6.6145834 v 6.614583 H 0 Z" />
    <path
       id="rect1277-3-43"
       style="stroke-width:3"
       d="M 13.229167,33.072917 H 19.84375 V 39.6875 h -6.614583 z" />
    <path
       id="rect1277-3-65"
       style="stroke-width:3"
       d="m 19.84375,39.6875 h 6.614583 v 6.614583 H 19.84375 Z" />
  </g>
</svg>
