<?xml version="1.0" encoding="UTF-8"?>
<svg width="500" height="500" version="1.1" viewBox="0 0 132.29 132.29" xmlns="http://www.w3.org/2000/svg">
 <g display="none">
  <g transform="matrix(.11497 0 0 .11497 -3.4364 -3.0379)" fill="#d3d2d2">
   <path d="m1096.9 168.75c-17.406 0-34.098 6.9141-46.402 19.223-12.309 12.305-19.223 28.996-19.223 46.402v185.62l-82.742 132.39-116.77-45c-0.16797 0-0.33594 0-0.50781-0.13281l-0.28125-0.14844-99.695-33.113v-163.84c0.0547-59.242-17.48-117.16-50.383-166.43l-65.266-97.895c-3.6758-4.9258-9.457-7.8242-15.602-7.8242s-11.926 2.8984-15.602 7.8242l-65.266 97.895c-32.902 49.262-50.438 107.18-50.383 166.43v163.84l-99.676 33.227-0.28125 0.14844c-0.16797 0-0.33594 0-0.50781 0.13281l-117.07 45-82.461-126.88v-191.25c0-23.445-12.508-45.109-32.812-56.832-20.305-11.723-45.32-11.723-65.625 0s-32.812 33.387-32.812 56.832v553.12c0 4.9727 1.9766 9.7422 5.4922 13.258 3.5156 3.5156 8.2852 5.4922 13.258 5.4922h18.75v22.199c-10.93 3.8633-20.398 11.012-27.109 20.461-6.7148 9.4531-10.344 20.746-10.391 32.34v37.5c0 4.9727 1.9766 9.7422 5.4922 13.258 3.5156 3.5156 8.2852 5.4922 13.258 5.4922h75c4.9727 0 9.7422-1.9766 13.258-5.4922 3.5156-3.5156 5.4922-8.2852 5.4922-13.258v-37.5c-0.0469-11.594-3.6758-22.887-10.391-32.34-6.7109-9.4492-16.18-16.598-27.109-20.461v-22.199h18.75c4.9727 0 9.7422-1.9766 13.258-5.4922 3.5156-3.5156 5.4922-8.2852 5.4922-13.258v-7.1641l97.875 48.938c13.668 6.8438 25.457 16.914 34.352 29.344l77.512 108.51c0.47656 0.58594 0.98828 1.1445 1.5352 1.668 0.30078 0.33594 0.5625 0.67578 0.89844 0.97656h4e-3c1.4961 1.418 3.2188 2.5781 5.0977 3.4297 0.39453 0.16797 0.78906 0.30078 1.1797 0.44922h4e-3c2.082 0.84375 4.2969 1.3008 6.543 1.3516h117.32c-15.352 21.996-23.578 48.176-23.57 75v18.75c0 4.9727 1.9766 9.7422 5.4922 13.258 3.5156 3.5156 8.2852 5.4922 13.258 5.4922h225c4.9727 0 9.7422-1.9766 13.258-5.4922 3.5156-3.5156 5.4922-8.2852 5.4922-13.258v-18.75c0.0156-26.82-8.207-53-23.551-75h117.3c2.2422-0.0391 4.4609-0.48438 6.543-1.3125 0.39453-0.14844 0.78906-0.26172 1.1797-0.44922h4e-3c1.8789-0.85547 3.6016-2.0117 5.0977-3.4336 0.32031-0.30078 0.58203-0.65625 0.89844-0.97656l4e-3 4e-3c0.54688-0.52344 1.0586-1.082 1.5352-1.668l77.512-108.51c8.8984-12.434 20.695-22.504 34.371-29.344l97.855-48.977v7.1641c0 4.9727 1.9766 9.7422 5.4922 13.258 3.5156 3.5156 8.2852 5.4922 13.258 5.4922h18.75v22.199c-10.93 3.8633-20.398 11.012-27.109 20.461-6.7148 9.4531-10.344 20.746-10.391 32.34v37.5c0 4.9727 1.9766 9.7422 5.4922 13.258 3.5156 3.5156 8.2852 5.4922 13.258 5.4922h75c4.9727 0 9.7422-1.9766 13.258-5.4922 3.5156-3.5156 5.4922-8.2852 5.4922-13.258v-37.5c-0.047-11.594-3.6758-22.887-10.391-32.34-6.7109-9.4492-16.18-16.598-27.109-20.461v-22.199h18.75c4.9727 0 9.7422-1.9766 13.258-5.4922 3.5156-3.5156 5.4922-8.2852 5.4922-13.258v-553.12c0-17.406-6.9141-34.098-19.223-46.402-12.305-12.309-28.996-19.223-46.402-19.223zm-984.38 731.25h-37.5v-18.75c0-6.6992 3.5742-12.887 9.375-16.238 5.8008-3.3477 12.949-3.3477 18.75 0 5.8008 3.3516 9.375 9.5391 9.375 16.238zm1012.5 0h-37.5v-18.75c0-6.6992 3.5742-12.887 9.375-16.238 5.8008-3.3477 12.949-3.3477 18.75 0 5.8008 3.3516 9.375 9.5391 9.375 16.238zm-28.125-693.75c7.4609 0 14.613 2.9648 19.887 8.2383 5.2734 5.2734 8.2383 12.426 8.2383 19.887v22.273h-56.25v-22.273c0-7.4609 2.9648-14.613 8.2383-19.887 5.2734-5.2734 12.426-8.2383 19.887-8.2383zm-30.977 229.09c1.8633-2.9766 2.8516-6.4219 2.8516-9.9375v-125.4h56.25v218.42l-70.895 88.613c-2.6602 3.3281-4.1094 7.4609-4.1055 11.719v69.148h-75v-107.12zm-128.4 258.41h-93.75v-141.45l93.75 36.055zm-131.25-155.23v323.98h-75v-348.98zm-300-51.02v-143.42l54.883-68.605 23.27 34.914-4e-3 -4e-3c3.6758 4.9258 9.457 7.8242 15.602 7.8242s11.926-2.8984 15.602-7.8242l23.27-34.914 54.879 68.609v347.14l-57.094-47.586 36.375-72.75c1.2969-2.6055 1.9727-5.4727 1.9688-8.3828v-56.25c4e-3 -2.5391-0.51172-5.0547-1.5195-7.3867l-56.25-131.25c-1.9375-4.5195-5.5742-8.0977-10.129-9.9609-4.5508-1.8633-9.6523-1.8633-14.203 0-4.5547 1.8633-8.1914 5.4414-10.129 9.9609l-56.25 131.25c-1.0078 2.332-1.5234 4.8477-1.5195 7.3867v56.25c-4e-3 2.9102 0.67188 5.7773 1.9688 8.3828l36.375 72.75-57.094 47.586zm100.91 131.25h-14.324l-30.34-60.676v-47.98l37.5-87.488 37.5 87.488v47.98zm-7.1641 43.125 93.75 78.133v7.668l-31.352 20.887c-18.465 12.355-40.18 18.949-62.398 18.949s-43.934-6.5938-62.398-18.949l-31.352-20.852v-7.668zm-93.75 275.62v-144.73l10.555 7.0312c24.625 16.473 53.582 25.266 83.203 25.266 29.625 0 58.582-8.793 83.203-25.266l10.539-7.0312v144.73zm93.75-847.5 49.668 74.492c5.2344 7.957 10.035 16.188 14.383 24.656 0.84375 1.6328 1.707 3.2422 2.5312 4.875 4.0625 8.1992 7.6914 16.605 10.875 25.184 0.58203 1.5547 1.0703 3.1328 1.6133 4.6875 2.9297 8.3711 5.4336 16.891 7.5 25.52 0.16797 0.73047 0.41406 1.4453 0.5625 2.1562 2.0234 9.0898 3.5625 18.285 4.6094 27.543 0.11328 0.91797 0.20703 1.875 0.30078 2.7734l-39.918-49.914v4e-3c-3.6875-4.7188-9.4531-7.3242-15.43-6.9766-5.9805 0.25781-11.473 3.3477-14.797 8.3242l-21.898 32.926-21.898-32.852c-3.3047-5.0039-8.8047-8.125-14.797-8.3984-5.9805-0.29688-11.734 2.3164-15.449 7.0117l-39.918 49.934c0.0937-0.91797 0.20703-1.875 0.30078-2.7734v-4e-3c1.0469-9.2578 2.5859-18.449 4.6133-27.543 0.16797-0.73047 0.39453-1.4453 0.5625-2.1562 2.0625-8.6289 4.5664-17.145 7.5-25.52 0.54297-1.5547 1.0312-3.1328 1.6133-4.6875h-4e-3c3.1836-8.5781 6.8164-16.98 10.875-25.18 0.80469-1.6328 1.6875-3.2422 2.5312-4.875 4.3477-8.4727 9.1484-16.703 14.383-24.656zm-131.25 622.5v150h-75v-323.98l75-24.992zm-112.5-18.75h-93.75v-105.39l93.75-36.055zm-131.25-112.71v112.71h-75v-75c4e-3 -4.2578-1.4453-8.3906-4.1055-11.719l-70.895-88.613v-218.42h56.25v131.25c4e-3 3.6289 1.0586 7.1797 3.0391 10.219zm-150-346.67c0-10.047 5.3594-19.332 14.062-24.355 8.7031-5.0273 19.422-5.0273 28.125 0 8.7031 5.0234 14.062 14.309 14.062 24.355v28.125h-56.25zm37.5 534.38h-37.5v-190.29l37.5 46.875zm152.14 26.98-114.64-57.316v-7.1641h206.25v166.5l-43.5-60.898c-12.453-17.418-28.969-31.531-48.113-41.121zm129.11 104.27h75v37.5h-75zm300 150h-187.5c0.0273-29.57 14.047-57.387 37.801-75h111.92c23.746 17.617 37.758 45.43 37.781 75zm37.5-112.5v-37.5h75v37.5zm204.11-141.77c-19.145 9.582-35.656 23.691-48.113 41.102l-43.5 60.918v-166.5h206.25v7.1641zm189.64-26.98h-37.5v-143.42l37.5-46.875z"/>
   <path d="m37.5 975h37.5v37.5h-37.5z"/>
   <path d="m112.5 975h37.5v37.5h-37.5z"/>
   <path d="m468.75 1125h37.5v37.5h-37.5z"/>
   <path d="m543.75 1125h37.5v37.5h-37.5z"/>
   <path d="m618.75 1125h37.5v37.5h-37.5z"/>
   <path d="m693.75 1125h37.5v37.5h-37.5z"/>
   <path d="m1050 975h37.5v37.5h-37.5z"/>
   <path d="m1125 975h37.5v37.5h-37.5z"/>
   <path d="m318.75 431.25h37.5v37.5h-37.5z"/>
   <path d="m393.75 412.5h37.5v37.5h-37.5z"/>
   <path d="m843.75 431.25h37.5v37.5h-37.5z"/>
   <path d="m768.75 412.5h37.5v37.5h-37.5z"/>
  </g>
 </g>
 <g fill="#280b0b" stroke-width="3">
  <rect x="66.146" width="6.6146" height="6.6146"/>
  <rect x="59.531" width="6.6146" height="6.6146"/>
  <rect x="52.917" y="6.6146" width="6.6146" height="6.6146"/>
  <rect x="72.76" y="6.6146" width="6.6146" height="6.6146"/>
  <rect x="46.302" y="13.229" width="6.6146" height="6.6146"/>
  <rect x="79.375" y="13.229" width="6.6146" height="6.6146"/>
  <rect x="46.302" y="19.844" width="6.6146" height="6.6146"/>
  <rect x="46.302" y="26.458" width="6.6146" height="6.6146"/>
  <rect x="46.302" y="33.073" width="6.6146" height="6.6146"/>
  <rect x="46.302" y="39.688" width="6.6146" height="6.6146"/>
  <rect x="46.302" y="46.302" width="6.6146" height="6.6146"/>
  <rect x="79.375" y="19.844" width="6.6146" height="6.6146"/>
  <rect x="79.375" y="26.458" width="6.6146" height="6.6146"/>
  <rect x="79.375" y="33.073" width="6.6146" height="6.6146"/>
  <rect x="79.375" y="39.688" width="6.6146" height="6.6146"/>
  <rect x="79.375" y="46.302" width="6.6146" height="6.6146"/>
  <rect x="6.6146" y="13.229" width="6.6146" height="6.6146"/>
  <rect x="1.8765e-6" y="19.844" width="6.6146" height="6.6146"/>
  <rect x="13.229" y="19.844" width="6.6146" height="6.6146"/>
  <rect x="1.8765e-6" y="26.458" width="6.6146" height="6.6146"/>
  <rect x="1.8765e-6" y="33.073" width="6.6146" height="6.6146"/>
  <rect x="13.229" y="26.458" width="6.6146" height="6.6146"/>
  <rect x="13.229" y="33.073" width="6.6146" height="6.6146"/>
  <rect x="13.229" y="39.688" width="6.6146" height="6.6146"/>
  <rect x="1.8765e-6" y="39.688" width="6.6146" height="6.6146"/>
  <rect x="1.8765e-6" y="46.302" width="6.6146" height="6.6146"/>
  <rect x="13.229" y="46.302" width="6.6146" height="6.6146"/>
  <rect x="19.844" y="52.917" width="6.6146" height="6.6146"/>
  <rect x="26.458" y="59.531" width="6.6146" height="6.6146"/>
  <rect x="39.688" y="52.917" width="6.6146" height="6.6146"/>
  <rect x="85.99" y="52.917" width="6.6146" height="6.6146"/>
  <rect x="92.604" y="59.531" width="6.6146" height="6.6146"/>
  <rect x="99.219" y="59.531" width="6.6146" height="6.6146"/>
  <rect x="33.073" y="59.531" width="6.6146" height="6.6146"/>
  <rect x="-6.1768e-8" y="52.917" width="6.6146" height="6.6146"/>
  <rect x="-6.1768e-8" y="59.531" width="6.6146" height="6.6146"/>
  <rect x="-6.1768e-8" y="66.146" width="6.6146" height="6.6146"/>
  <rect x="-6.1768e-8" y="72.76" width="6.6146" height="6.6146"/>
  <rect x="-6.1768e-8" y="79.375" width="6.6146" height="6.6146"/>
  <rect x="105.83" y="52.917" width="6.6146" height="6.6146"/>
  <rect x="112.45" y="46.302" width="6.6146" height="6.6146"/>
  <rect x="112.45" y="39.688" width="6.6146" height="6.6146"/>
  <rect x="112.45" y="33.073" width="6.6146" height="6.6146"/>
  <rect x="112.45" y="26.458" width="6.6146" height="6.6146"/>
  <rect x="112.45" y="19.844" width="6.6146" height="6.6146"/>
  <rect x="119.06" y="13.229" width="6.6146" height="6.6146"/>
  <rect x="125.68" y="19.844" width="6.6146" height="6.6146"/>
  <rect x="125.68" y="26.458" width="6.6146" height="6.6146"/>
  <rect x="125.68" y="33.073" width="6.6146" height="6.6146"/>
  <rect x="125.68" y="39.688" width="6.6146" height="6.6146"/>
  <rect x="125.68" y="46.302" width="6.6146" height="6.6146"/>
  <rect x="125.68" y="52.917" width="6.6146" height="6.6146"/>
  <rect x="125.68" y="59.531" width="6.6146" height="6.6146"/>
  <rect x="125.68" y="66.146" width="6.6146" height="6.6146"/>
  <rect x="125.68" y="72.76" width="6.6146" height="6.6146"/>
  <rect x="125.68" y="79.375" width="6.6146" height="6.6146"/>
  <rect x="125.68" y="85.99" width="6.6146" height="6.6146"/>
  <rect x="52.917" y="26.458" width="6.6146" height="6.6146"/>
  <rect x="59.531" y="19.844" width="6.6146" height="6.6146"/>
  <rect x="66.146" y="19.844" width="6.6146" height="6.6146"/>
  <rect x="72.76" y="26.458" width="6.6146" height="6.6146"/>
  <rect x="19.844" y="85.99" width="6.6146" height="6.6146"/>
  <rect x="26.458" y="92.604" width="6.6146" height="6.6146"/>
  <rect x="33.073" y="99.219" width="6.6146" height="6.6146"/>
  <rect x="39.688" y="105.83" width="6.6146" height="6.6146"/>
  <rect x="46.302" y="105.83" width="6.6146" height="6.6146"/>
  <rect x="52.917" y="105.83" width="6.6146" height="6.6146"/>
  <rect x="72.76" y="105.83" width="6.6146" height="6.6146"/>
  <rect x="79.375" y="105.83" width="6.6146" height="6.6146"/>
  <rect x="85.99" y="105.83" width="6.6146" height="6.6146"/>
  <rect x="92.604" y="99.219" width="6.6146" height="6.6146"/>
  <rect x="99.219" y="92.604" width="6.6146" height="6.6146"/>
  <rect x="105.83" y="85.99" width="6.6146" height="6.6146"/>
  <rect x="112.45" y="79.375" width="6.6146" height="6.6146"/>
  <rect x="119.06" y="85.99" width="6.6146" height="6.6146"/>
  <rect x="52.917" y="112.45" width="6.6146" height="6.6146"/>
  <rect x="46.302" y="119.06" width="6.6146" height="6.6146"/>
  <rect x="79.375" y="119.06" width="6.6146" height="6.6146"/>
  <rect x="72.76" y="112.45" width="6.6146" height="6.6146"/>
  <rect x="46.302" y="125.68" width="6.6146" height="6.6146"/>
  <rect x="52.917" y="125.68" width="6.6146" height="6.6146"/>
  <rect x="59.531" y="125.68" width="6.6146" height="6.6146"/>
  <rect x="66.146" y="125.68" width="6.6146" height="6.6146"/>
  <rect x="72.76" y="125.68" width="6.6146" height="6.6146"/>
  <rect x="79.375" y="125.68" width="6.6146" height="6.6146"/>
  <rect x="-6.1768e-8" y="85.99" width="6.6146" height="6.6146"/>
  <rect x="-6.1768e-8" y="92.604" width="6.6146" height="6.6146"/>
  <rect x="19.844" y="92.604" width="6.6146" height="6.6146"/>
  <rect x="105.83" y="92.604" width="6.6146" height="6.6146"/>
 </g>
 <g fill="#280b0b" stroke-width="3">
  <rect x="33.073" y="66.146" width="6.6146" height="6.6146"/>
  <rect x="33.073" y="72.76" width="6.6146" height="6.6146"/>
  <rect x="33.073" y="79.375" width="6.6146" height="6.6146"/>
  <rect x="33.073" y="85.99" width="6.6146" height="6.6146"/>
  <rect x="33.073" y="92.604" width="6.6146" height="6.6146"/>
  <rect x="92.604" y="66.146" width="6.6146" height="6.6146"/>
  <rect x="92.604" y="72.76" width="6.6146" height="6.6146"/>
  <rect x="92.604" y="79.375" width="6.6146" height="6.6146"/>
  <rect x="92.604" y="85.99" width="6.6146" height="6.6146"/>
  <rect x="92.604" y="92.604" width="6.6146" height="6.6146"/>
  <rect x="46.302" y="52.917" width="6.6146" height="6.6146"/>
  <rect x="46.302" y="59.531" width="6.6146" height="6.6146"/>
  <rect x="46.302" y="66.146" width="6.6146" height="6.6146"/>
  <rect x="46.302" y="72.76" width="6.6146" height="6.6146"/>
  <rect x="46.302" y="79.375" width="6.6146" height="6.6146"/>
  <rect x="46.302" y="85.99" width="6.6146" height="6.6146"/>
  <rect x="46.302" y="92.604" width="6.6146" height="6.6146"/>
  <rect x="46.302" y="99.219" width="6.6146" height="6.6146"/>
  <rect x="79.375" y="52.917" width="6.6146" height="6.6146"/>
  <rect x="79.375" y="59.531" width="6.6146" height="6.6146"/>
  <rect x="79.375" y="66.146" width="6.6146" height="6.6146"/>
  <rect x="79.375" y="72.76" width="6.6146" height="6.6146"/>
  <rect x="79.375" y="79.375" width="6.6146" height="6.6146"/>
  <rect x="79.375" y="85.99" width="6.6146" height="6.6146"/>
  <rect x="79.375" y="92.604" width="6.6146" height="6.6146"/>
  <rect x="79.375" y="99.219" width="6.6146" height="6.6146"/>
  <rect x="13.229" y="79.375" width="6.6146" height="6.6146"/>
  <rect x="125.68" y="92.604" width="6.6146" height="6.6146"/>
  <rect x="6.6146" y="85.99" width="6.6146" height="6.6146"/>
 </g>
</svg>
