<?xml version="1.0" encoding="UTF-8"?>
<!-- Created with Inkscape (http://www.inkscape.org/) -->
<svg width="325" height="325" version="1.1" viewBox="0 0 85.99 85.99" xmlns="http://www.w3.org/2000/svg">
 <g stroke-width="3">
  <g fill="#2b0000">
   <rect transform="rotate(-90)" x="-46.302" y="1.4305e-6" width="6.6146" height="6.6146"/>
   <rect transform="rotate(-90)" x="-85.99" y="1.4305e-6" width="6.6146" height="6.6146"/>
   <rect transform="rotate(-90)" x="-85.99" y="6.6146" width="6.6146" height="6.6146"/>
   <rect transform="rotate(-90)" x="-85.99" y="13.229" width="6.6146" height="6.6146"/>
   <rect transform="rotate(-90)" x="-85.99" y="19.844" width="6.6146" height="6.6146"/>
   <rect transform="rotate(-90)" x="-85.99" y="26.458" width="6.6146" height="6.6146"/>
   <rect transform="rotate(-90)" x="-85.99" y="39.687" width="6.6146" height="6.6146"/>
   <rect transform="rotate(-90)" x="-85.99" y="52.917" width="6.6146" height="6.6146"/>
   <rect transform="rotate(-90)" x="-85.99" y="46.302" width="6.6146" height="6.6146"/>
  </g>
  <g fill="#fdc230">
   <rect transform="rotate(-90)" x="-66.146" y="26.458" width="6.6146" height="6.6146"/>
   <rect transform="rotate(-90)" x="-72.76" y="33.073" width="6.6146" height="6.6146"/>
   <rect transform="rotate(-90)" x="-72.76" y="26.458" width="6.6146" height="6.6146"/>
  </g>
  <g>
   <rect transform="rotate(-90)" x="-66.146" y="33.073" width="6.6146" height="6.6146" fill="#ffc32e"/>
   <rect transform="rotate(-90)" x="-66.146" y="39.687" width="6.6146" height="6.6146" fill="#ffc32e"/>
   <rect transform="rotate(-90)" x="-72.76" y="39.687" width="6.6146" height="6.6146" fill="#fdc230"/>
   <rect transform="rotate(-90)" x="-79.375" y="39.687" width="6.6146" height="6.6146" fill="#fdc230"/>
  </g>
  <g fill="#2b0000">
   <rect transform="rotate(-90)" x="-85.99" y="33.073" width="6.6146" height="6.6146"/>
   <rect transform="rotate(-90)" x="-79.375" y="1.4305e-6" width="6.6146" height="6.6146"/>
   <rect transform="rotate(-90)" x="-72.76" y="1.4305e-6" width="6.6146" height="6.6146"/>
   <rect transform="rotate(-90)" x="-66.146" y="1.4305e-6" width="6.6146" height="6.6146"/>
   <rect transform="rotate(-90)" x="-59.531" y="1.4305e-6" width="6.6146" height="6.6146"/>
   <rect transform="rotate(-90)" x="-52.917" y="1.4305e-6" width="6.6146" height="6.6146"/>
   <rect transform="rotate(-90)" x="-85.99" y="59.531" width="6.6146" height="6.6146"/>
   <rect transform="rotate(-90)" x="-39.687" y="1.4305e-6" width="6.6146" height="6.6146"/>
   <rect transform="rotate(-90)" x="-33.073" y="1.4305e-6" width="6.6146" height="6.6146"/>
   <rect transform="rotate(-90)" x="-85.99" y="66.146" width="6.6146" height="6.6146"/>
   <rect transform="rotate(-90)" x="-85.99" y="72.76" width="6.6146" height="6.6146"/>
   <rect transform="rotate(-90)" x="-79.375" y="72.76" width="6.6146" height="6.6146"/>
   <rect transform="rotate(-90)" x="-72.76" y="66.146" width="6.6146" height="6.6146"/>
   <rect transform="rotate(-90)" x="-66.146" y="59.531" width="6.6146" height="6.6146"/>
   <rect transform="rotate(-90)" x="-59.531" y="52.917" width="6.6146" height="6.6146"/>
   <rect transform="rotate(-90)" x="-52.917" y="59.531" width="6.6146" height="6.6146"/>
   <rect transform="rotate(-90)" x="-46.302" y="66.146" width="6.6146" height="6.6146"/>
   <rect transform="rotate(-90)" x="-39.687" y="72.76" width="6.6146" height="6.6146"/>
   <rect transform="rotate(-90)" x="-33.073" y="79.375" width="6.6146" height="6.6146"/>
   <rect transform="rotate(-90)" x="-26.458" y="72.76" width="6.6146" height="6.6146"/>
   <rect transform="rotate(-90)" x="-19.844" y="66.146" width="6.6146" height="6.6146"/>
   <rect transform="rotate(-90)" x="-13.229" y="59.531" width="6.6146" height="6.6146"/>
   <rect transform="rotate(-90)" x="-6.6146" y="52.917" width="6.6146" height="6.6146"/>
   <rect transform="rotate(-90)" x="-13.229" y="46.302" width="6.6146" height="6.6146"/>
   <rect transform="rotate(-90)" x="-19.844" y="39.687" width="6.6146" height="6.6146"/>
   <rect transform="rotate(-90)" x="-26.458" y="33.073" width="6.6146" height="6.6146"/>
   <rect transform="rotate(-90)" x="-33.073" y="26.458" width="6.6146" height="6.6146"/>
   <rect transform="rotate(-90)" x="-19.844" y="13.229" width="6.6146" height="6.6146"/>
   <rect transform="rotate(-90)" x="-26.458" y="19.844" width="6.6146" height="6.6146"/>
   <rect transform="rotate(-90)" x="-13.229" y="6.6146" width="6.6146" height="6.6146"/>
   <rect transform="rotate(-90)" x="-13.229" y="1.4305e-6" width="6.6146" height="6.6146"/>
   <rect transform="rotate(-90)" x="-19.844" y="1.4305e-6" width="6.6146" height="6.6146"/>
   <rect transform="rotate(-90)" x="-26.458" y="1.4305e-6" width="6.6146" height="6.6146"/>
  </g>
  <g fill="#fdc230">
   <rect transform="rotate(-90)" x="-72.76" y="6.6146" width="6.6146" height="6.6146"/>
   <rect transform="rotate(-90)" x="-79.375" y="6.6146" width="6.6146" height="6.6146"/>
   <rect transform="rotate(-90)" x="-66.146" y="6.6146" width="6.6146" height="6.6146"/>
   <rect transform="rotate(-90)" x="-52.917" y="6.6146" width="6.6146" height="6.6146"/>
   <rect transform="rotate(-90)" x="-59.531" y="6.6146" width="6.6146" height="6.6146"/>
   <rect transform="rotate(-90)" x="-46.302" y="6.6146" width="6.6146" height="6.6146"/>
   <rect transform="rotate(-90)" x="-33.073" y="6.6146" width="6.6146" height="6.6146"/>
   <rect transform="rotate(-90)" x="-39.687" y="6.6146" width="6.6146" height="6.6146"/>
   <rect transform="rotate(-90)" x="-26.458" y="6.6146" width="6.6146" height="6.6146"/>
   <rect transform="rotate(-90)" x="-72.76" y="13.229" width="6.6146" height="6.6146"/>
   <rect transform="rotate(-90)" x="-79.375" y="13.229" width="6.6146" height="6.6146"/>
   <rect transform="rotate(-90)" x="-66.146" y="13.229" width="6.6146" height="6.6146"/>
   <rect transform="rotate(-90)" x="-52.917" y="13.229" width="6.6146" height="6.6146"/>
   <rect transform="rotate(-90)" x="-59.531" y="13.229" width="6.6146" height="6.6146"/>
   <rect transform="rotate(-90)" x="-46.302" y="13.229" width="6.6146" height="6.6146"/>
   <rect transform="rotate(-90)" x="-33.073" y="13.229" width="6.6146" height="6.6146"/>
   <rect transform="rotate(-90)" x="-39.687" y="13.229" width="6.6146" height="6.6146"/>
   <rect transform="rotate(-90)" x="-26.458" y="13.229" width="6.6146" height="6.6146"/>
   <rect transform="rotate(-90)" x="-72.76" y="19.844" width="6.6146" height="6.6146"/>
   <rect transform="rotate(-90)" x="-79.375" y="19.844" width="6.6146" height="6.6146"/>
   <rect transform="rotate(-90)" x="-66.146" y="19.844" width="6.6146" height="6.6146"/>
   <rect transform="rotate(-90)" x="-52.917" y="19.844" width="6.6146" height="6.6146"/>
   <rect transform="rotate(-90)" x="-59.531" y="19.844" width="6.6146" height="6.6146"/>
   <rect transform="rotate(-90)" x="-46.302" y="19.844" width="6.6146" height="6.6146"/>
   <rect transform="rotate(-90)" x="-52.917" y="26.458" width="6.6146" height="6.6146"/>
   <rect transform="rotate(-90)" x="-59.531" y="26.458" width="6.6146" height="6.6146"/>
   <rect transform="rotate(-90)" x="-46.302" y="26.458" width="6.6146" height="6.6146"/>
   <rect transform="rotate(-90)" x="-52.917" y="33.073" width="6.6146" height="6.6146"/>
   <rect transform="rotate(-90)" x="-59.531" y="33.073" width="6.6146" height="6.6146"/>
   <rect transform="rotate(-90)" x="-46.302" y="33.073" width="6.6146" height="6.6146"/>
   <rect transform="rotate(-90)" x="-52.917" y="39.687" width="6.6146" height="6.6146"/>
   <rect transform="rotate(-90)" x="-59.531" y="39.687" width="6.6146" height="6.6146"/>
   <rect transform="rotate(-90)" x="-46.302" y="39.687" width="6.6146" height="6.6146"/>
   <rect transform="rotate(-90)" x="-52.917" y="46.302" width="6.6146" height="6.6146"/>
   <rect transform="rotate(-90)" x="-59.531" y="46.302" width="6.6146" height="6.6146"/>
   <rect transform="rotate(-90)" x="-46.302" y="46.302" width="6.6146" height="6.6146"/>
   <rect transform="rotate(-90)" x="-72.76" y="46.302" width="6.6146" height="6.6146"/>
   <rect transform="rotate(-90)" x="-79.375" y="46.302" width="6.6146" height="6.6146"/>
   <rect transform="rotate(-90)" x="-66.146" y="46.302" width="6.6146" height="6.6146"/>
   <rect transform="rotate(-90)" x="-33.073" y="46.302" width="6.6146" height="6.6146"/>
   <rect transform="rotate(-90)" x="-39.687" y="46.302" width="6.6146" height="6.6146"/>
   <rect transform="rotate(-90)" x="-26.458" y="46.302" width="6.6146" height="6.6146"/>
   <rect transform="rotate(-90)" x="-46.302" y="52.917" width="6.6146" height="6.6146"/>
   <rect transform="rotate(-90)" x="-52.917" y="52.917" width="6.6146" height="6.6146"/>
   <rect transform="rotate(-90)" x="-39.687" y="52.917" width="6.6146" height="6.6146"/>
   <rect transform="rotate(-90)" x="-26.458" y="52.917" width="6.6146" height="6.6146"/>
   <rect transform="rotate(-90)" x="-33.073" y="52.917" width="6.6146" height="6.6146"/>
   <rect transform="rotate(-90)" x="-19.844" y="52.917" width="6.6146" height="6.6146"/>
   <rect transform="rotate(-90)" x="-33.073" y="59.531" width="6.6146" height="6.6146"/>
   <rect transform="rotate(-90)" x="-39.687" y="59.531" width="6.6146" height="6.6146"/>
   <rect transform="rotate(-90)" x="-26.458" y="59.531" width="6.6146" height="6.6146"/>
   <rect transform="rotate(-90)" x="-33.073" y="66.146" width="6.6146" height="6.6146"/>
   <rect transform="rotate(-90)" x="-39.687" y="66.146" width="6.6146" height="6.6146"/>
   <rect transform="rotate(-90)" x="-26.458" y="66.146" width="6.6146" height="6.6146"/>
   <rect transform="rotate(-90)" x="-72.76" y="52.917" width="6.6146" height="6.6146"/>
   <rect transform="rotate(-90)" x="-79.375" y="52.917" width="6.6146" height="6.6146"/>
   <rect transform="rotate(-90)" x="-66.146" y="52.917" width="6.6146" height="6.6146"/>
   <rect transform="rotate(-90)" x="-79.375" y="26.458" width="6.6146" height="6.6146"/>
   <rect transform="rotate(-90)" x="-79.375" y="33.073" width="6.6146" height="6.6146"/>
   <rect transform="rotate(-90)" x="-79.375" y="59.531" width="6.6146" height="6.6146"/>
   <rect transform="rotate(-90)" x="-72.76" y="59.531" width="6.6146" height="6.6146"/>
   <rect transform="rotate(-90)" x="-79.375" y="66.146" width="6.6146" height="6.6146"/>
   <rect transform="rotate(-90)" x="-46.302" y="59.531" width="6.6146" height="6.6146"/>
   <rect transform="rotate(-90)" x="-33.073" y="72.76" width="6.6146" height="6.6146"/>
   <rect transform="rotate(-90)" x="-19.844" y="59.531" width="6.6146" height="6.6146"/>
   <rect transform="rotate(-90)" x="-13.229" y="52.917" width="6.6146" height="6.6146"/>
   <rect transform="rotate(-90)" x="-19.844" y="46.302" width="6.6146" height="6.6146"/>
   <rect transform="rotate(-90)" x="-26.458" y="39.687" width="6.6146" height="6.6146"/>
   <rect transform="rotate(-90)" x="-33.073" y="39.687" width="6.6146" height="6.6146"/>
   <rect transform="rotate(-90)" x="-39.687" y="39.687" width="6.6146" height="6.6146"/>
   <rect transform="rotate(-90)" x="-39.687" y="33.073" width="6.6146" height="6.6146"/>
   <rect transform="rotate(-90)" x="-33.073" y="33.073" width="6.6146" height="6.6146"/>
   <rect transform="rotate(-90)" x="-39.687" y="26.458" width="6.6146" height="6.6146"/>
   <rect transform="rotate(-90)" x="-39.687" y="19.844" width="6.6146" height="6.6146"/>
   <rect transform="rotate(-90)" x="-33.073" y="19.844" width="6.6146" height="6.6146"/>
   <rect transform="rotate(-90)" x="-19.844" y="6.6146" width="6.6146" height="6.6146"/>
  </g>
 </g>
</svg>
