<?xml version="1.0" encoding="UTF-8"?>
<!-- Created with Inkscape (http://www.inkscape.org/) -->
<svg width="325" height="325" version="1.1" viewBox="0 0 85.99 85.99" xmlns="http://www.w3.org/2000/svg">
 <g stroke-width="3">
  <g fill="#280b0b">
   <rect x="33.073" width="6.6146" height="6.6146"/>
   <rect x="39.688" width="6.6146" height="6.6146"/>
   <rect x="46.302" width="6.6146" height="6.6146"/>
   <rect x="19.844" y="6.6146" width="6.6146" height="6.6146"/>
   <rect x="26.458" y="-7.7209e-9" width="6.6146" height="6.6146"/>
   <rect x="52.917" y="-7.7209e-9" width="6.6146" height="6.6146"/>
   <rect x="13.229" y="6.6146" width="6.6146" height="6.6146"/>
   <rect x="6.6146" y="13.229" width="6.6146" height="6.6146"/>
   <rect x="-6.1768e-8" y="26.458" width="6.6146" height="6.6146"/>
   <rect x="-6.1768e-8" y="33.073" width="6.6146" height="6.6146"/>
   <rect x="-6.1768e-8" y="39.688" width="6.6146" height="6.6146"/>
   <rect x="-6.1768e-8" y="46.302" width="6.6146" height="6.6146"/>
   <rect x="-6.1768e-8" y="52.917" width="6.6146" height="6.6146"/>
   <rect x="6.6146" y="59.531" width="6.6146" height="6.6146"/>
   <rect x="6.6146" y="19.844" width="6.6146" height="6.6146"/>
   <rect x="6.6146" y="66.146" width="6.6146" height="6.6146"/>
   <rect x="13.229" y="72.76" width="6.6146" height="6.6146"/>
   <rect x="19.844" y="72.76" width="6.6146" height="6.6146"/>
   <rect x="26.458" y="79.375" width="6.6146" height="6.6146"/>
   <rect x="33.073" y="79.375" width="6.6146" height="6.6146"/>
   <rect x="39.688" y="79.375" width="6.6146" height="6.6146"/>
   <rect x="46.302" y="79.375" width="6.6146" height="6.6146"/>
   <rect x="52.917" y="79.375" width="6.6146" height="6.6146"/>
   <rect x="59.531" y="6.6146" width="6.6146" height="6.6146"/>
   <rect x="66.146" y="6.6146" width="6.6146" height="6.6146"/>
   <rect x="72.76" y="13.229" width="6.6146" height="6.6146"/>
   <rect x="72.76" y="19.844" width="6.6146" height="6.6146"/>
   <rect x="79.375" y="26.458" width="6.6146" height="6.6146"/>
   <rect x="79.375" y="33.073" width="6.6146" height="6.6146"/>
   <rect x="79.375" y="39.688" width="6.6146" height="6.6146"/>
   <rect x="79.375" y="46.302" width="6.6146" height="6.6146"/>
   <rect x="79.375" y="52.917" width="6.6146" height="6.6146"/>
   <rect x="72.76" y="59.531" width="6.6146" height="6.6146"/>
   <rect x="72.76" y="66.146" width="6.6146" height="6.6146"/>
   <rect x="66.146" y="72.76" width="6.6146" height="6.6146"/>
   <rect x="59.531" y="72.76" width="6.6146" height="6.6146"/>
  </g>
  <g fill="#ed4e46">
   <rect x="33.073" y="19.844" width="6.6146" height="6.6146"/>
   <rect x="52.917" y="19.844" width="6.6146" height="6.6146"/>
   <rect x="46.302" y="19.844" width="6.6146" height="6.6146"/>
   <rect x="46.302" y="26.458" width="6.6146" height="6.6146"/>
   <rect x="39.688" y="19.844" width="6.6146" height="6.6146"/>
   <rect x="39.688" y="26.458" width="6.6146" height="6.6146"/>
   <rect x="33.073" y="26.458" width="6.6146" height="6.6146"/>
   <rect x="33.073" y="33.073" width="6.6146" height="6.6146"/>
   <rect x="39.688" y="33.073" width="6.6146" height="6.6146"/>
   <rect x="39.688" y="39.688" width="6.6146" height="6.6146"/>
   <rect x="33.073" y="39.688" width="6.6146" height="6.6146"/>
   <rect x="46.302" y="33.073" width="6.6146" height="6.6146"/>
   <rect x="52.917" y="33.073" width="6.6146" height="6.6146"/>
   <rect x="52.917" y="39.688" width="6.6146" height="6.6146"/>
   <rect x="46.302" y="39.688" width="6.6146" height="6.6146"/>
   <rect x="59.531" y="33.073" width="6.6146" height="6.6146"/>
   <rect x="66.146" y="39.688" width="6.6146" height="6.6146"/>
   <rect x="59.531" y="39.688" width="6.6146" height="6.6146"/>
   <rect x="59.531" y="46.302" width="6.6146" height="6.6146"/>
   <rect x="66.146" y="46.302" width="6.6146" height="6.6146"/>
   <rect x="66.146" y="52.917" width="6.6146" height="6.6146"/>
   <rect x="59.531" y="52.917" width="6.6146" height="6.6146"/>
   <rect x="46.302" y="46.302" width="6.6146" height="6.6146"/>
   <rect x="52.917" y="46.302" width="6.6146" height="6.6146"/>
   <rect x="52.917" y="52.917" width="6.6146" height="6.6146"/>
   <rect x="46.302" y="52.917" width="6.6146" height="6.6146"/>
   <rect x="33.073" y="46.302" width="6.6146" height="6.6146"/>
   <rect x="39.688" y="46.302" width="6.6146" height="6.6146"/>
   <rect x="39.688" y="52.917" width="6.6146" height="6.6146"/>
   <rect x="33.073" y="52.917" width="6.6146" height="6.6146"/>
   <rect x="19.844" y="46.302" width="6.6146" height="6.6146"/>
   <rect x="26.458" y="46.302" width="6.6146" height="6.6146"/>
   <rect x="26.458" y="52.917" width="6.6146" height="6.6146"/>
   <rect x="19.844" y="52.917" width="6.6146" height="6.6146"/>
   <rect x="19.844" y="33.073" width="6.6146" height="6.6146"/>
   <rect x="26.458" y="33.073" width="6.6146" height="6.6146"/>
   <rect x="26.458" y="39.688" width="6.6146" height="6.6146"/>
   <rect x="19.844" y="39.688" width="6.6146" height="6.6146"/>
   <rect x="19.844" y="19.844" width="6.6146" height="6.6146"/>
   <rect x="26.458" y="19.844" width="6.6146" height="6.6146"/>
   <rect x="26.458" y="26.458" width="6.6146" height="6.6146"/>
   <rect x="19.844" y="26.458" width="6.6146" height="6.6146"/>
   <rect x="26.458" y="6.6146" width="6.6146" height="6.6146"/>
   <rect x="33.073" y="13.229" width="6.6146" height="6.6146"/>
   <rect x="33.073" y="6.6146" width="6.6146" height="6.6146"/>
   <rect x="26.458" y="13.229" width="6.6146" height="6.6146"/>
  </g>
  <rect x="39.688" y="6.6146" width="6.6146" height="6.6146" fill="#f1736d"/>
  <rect x="46.302" y="6.6146" width="6.6146" height="6.6146" fill="#f1736d"/>
  <g fill="#ed4e46">
   <rect x="46.302" y="13.229" width="6.6146" height="6.6146"/>
   <rect x="39.688" y="13.229" width="6.6146" height="6.6146"/>
   <rect x="6.6146" y="26.458" width="6.6146" height="6.6146"/>
   <rect x="13.229" y="26.458" width="6.6146" height="6.6146"/>
   <rect x="13.229" y="33.073" width="6.6146" height="6.6146"/>
  </g>
  <rect x="6.6146" y="33.073" width="6.6146" height="6.6146" fill="#d74c45"/>
  <rect x="6.6146" y="39.688" width="6.6146" height="6.6146" fill="#d74c45"/>
  <rect x="13.229" y="39.688" width="6.6146" height="6.6146" fill="#ed4e46"/>
  <rect x="13.229" y="46.302" width="6.6146" height="6.6146" fill="#ed4e46"/>
  <g fill="#d74c45">
   <rect x="6.6146" y="46.302" width="6.6146" height="6.6146"/>
   <rect x="13.229" y="59.531" width="6.6146" height="6.6146"/>
   <rect x="19.844" y="59.531" width="6.6146" height="6.6146"/>
   <rect x="19.844" y="66.146" width="6.6146" height="6.6146"/>
   <rect x="13.229" y="66.146" width="6.6146" height="6.6146"/>
  </g>
  <g fill="#ed4e46">
   <rect x="26.458" y="59.531" width="6.6146" height="6.6146"/>
   <rect x="33.073" y="59.531" width="6.6146" height="6.6146"/>
   <rect x="33.073" y="66.146" width="6.6146" height="6.6146"/>
  </g>
  <rect x="26.458" y="66.146" width="6.6146" height="6.6146" fill="#d74c45"/>
  <g fill="#ed4e46">
   <rect x="39.688" y="59.531" width="6.6146" height="6.6146"/>
   <rect x="46.302" y="59.531" width="6.6146" height="6.6146"/>
   <rect x="46.302" y="66.146" width="6.6146" height="6.6146"/>
   <rect x="39.688" y="66.146" width="6.6146" height="6.6146"/>
   <rect x="52.917" y="59.531" width="6.6146" height="6.6146"/>
   <rect x="59.531" y="59.531" width="6.6146" height="6.6146"/>
   <rect x="59.531" y="66.146" width="6.6146" height="6.6146"/>
   <rect x="52.917" y="66.146" width="6.6146" height="6.6146"/>
  </g>
  <rect x="59.531" y="13.229" width="6.6146" height="6.6146" fill="#f1736d"/>
  <rect x="66.146" y="13.229" width="6.6146" height="6.6146" fill="#f5aba8"/>
  <rect x="66.146" y="19.844" width="6.6146" height="6.6146" fill="#f1736d"/>
  <rect x="72.76" y="26.458" width="6.6146" height="6.6146" fill="#f5aca8"/>
  <rect x="66.146" y="26.458" width="6.6146" height="6.6146" fill="#f1736d"/>
  <rect x="19.844" y="13.229" width="6.6146" height="6.6146" fill="#ed4e46"/>
  <g fill="#d74c45">
   <rect x="13.229" y="52.917" width="6.6146" height="6.6146"/>
   <rect x="6.6146" y="52.917" width="6.6146" height="6.6146"/>
   <rect x="26.458" y="72.76" width="6.6146" height="6.6146"/>
   <rect x="33.073" y="72.76" width="6.6146" height="6.6146"/>
   <rect x="39.687" y="72.76" width="6.6146" height="6.6146"/>
  </g>
  <g fill="#ed4e46">
   <rect x="46.302" y="72.76" width="6.6146" height="6.6146"/>
   <rect x="52.917" y="72.76" width="6.6146" height="6.6146"/>
   <rect x="72.76" y="52.917" width="6.6146" height="6.6146"/>
  </g>
  <g fill="#f1736d">
   <rect x="72.76" y="33.073" width="6.6146" height="6.6146"/>
   <rect x="66.146" y="33.073" width="6.6146" height="6.6146"/>
   <rect x="72.76" y="39.688" width="6.6146" height="6.6146"/>
   <rect x="72.76" y="46.302" width="6.6146" height="6.6146"/>
  </g>
  <g fill="#ed4e46">
   <rect x="66.146" y="59.531" width="6.6146" height="6.6146"/>
   <rect x="66.146" y="66.146" width="6.6146" height="6.6146"/>
   <rect x="13.229" y="13.229" width="6.6146" height="6.6146"/>
   <rect x="13.229" y="19.844" width="6.6146" height="6.6146"/>
  </g>
  <g fill="#f1736d">
   <rect x="52.917" y="6.6146" width="6.6146" height="6.6146"/>
   <rect x="52.917" y="13.229" width="6.6146" height="6.6146"/>
   <rect x="59.531" y="19.844" width="6.6146" height="6.6146"/>
  </g>
  <rect x="59.531" y="26.458" width="6.6146" height="6.6146" fill="#ed4e46"/>
  <rect x="52.917" y="26.458" width="6.6146" height="6.6146" fill="#ed4e46"/>
 </g>
</svg>
