<?xml version="1.0" encoding="UTF-8"?>
<!-- Created with Inkscape (http://www.inkscape.org/) -->
<svg width="225" height="200" version="1.1" viewBox="0 0 59.531 52.917" xmlns="http://www.w3.org/2000/svg">
 <g stroke-width="3">
  <path d="m8e-7 6.6146h6.6146v6.6146h-6.6146z"/>
  <path d="m26.458 46.302h6.6146v6.6146h-6.6146z"/>
  <path d="m33.073 39.688h6.6146v6.6146h-6.6146z"/>
  <path d="m39.688 33.073h6.6146v6.6146h-6.6146z"/>
  <path d="m46.302 26.458h6.6146v6.6146h-6.6146z"/>
  <path d="m52.917 19.844h6.6146v6.6146h-6.6146z"/>
  <path d="m52.917 13.229h6.6146v6.6146h-6.6146z"/>
  <path d="m52.917 6.6146h6.6146v6.6146h-6.6146z"/>
  <path d="m46.302 0h6.6146v6.6146h-6.6146z"/>
  <path d="m39.688 0h6.6146v6.6146h-6.6146z"/>
  <path d="m33.073 0h6.6146v6.6146h-6.6146z"/>
  <path d="m26.458 6.6146h6.6146v6.6146h-6.6146z"/>
  <g fill="#cd1e1e">
   <path d="m26.458 33.073h6.6146v6.6146h-6.6146z"/>
   <path d="m26.458 26.458h6.6146v6.6146h-6.6146z"/>
   <path d="m26.458 19.844h6.6146v6.6146h-6.6146z"/>
   <path d="m26.458 13.229h6.6146v6.6146h-6.6146z"/>
   <path d="m19.844 13.229h6.6146v6.6146h-6.6146z"/>
   <path d="m19.844 6.6146h6.6146v6.6146h-6.6146z"/>
   <path d="m13.229 6.6146h6.6146v6.6146h-6.6146z"/>
  </g>
  <g fill="#a41818">
   <path d="m6.6146 6.6146h6.6146v6.6146h-6.6146z"/>
   <path d="m6.6146 13.229h6.6146v6.6146h-6.6146z"/>
   <path d="m6.6146 19.844h6.6146v6.6146h-6.6146z"/>
  </g>
  <g>
   <path d="m13.229 19.844h6.6146v6.6146h-6.6146z" fill="#cd1e1e"/>
   <path d="m13.229 26.458h6.6146v6.6146h-6.6146z" fill="#a41818"/>
   <path d="m19.844 26.458h6.6146v6.6146h-6.6146z" fill="#cd1e1e"/>
   <path d="m19.844 33.073h6.6146v6.6146h-6.6146z" fill="#a41818"/>
   <path d="m26.458 39.688h6.6146v6.6146h-6.6146z" fill="#a41818"/>
  </g>
  <g fill="#cd1e1e">
   <path d="m33.073 33.073h6.6146v6.6146h-6.6146z"/>
   <path d="m33.073 19.844h6.6146v6.6146h-6.6146z"/>
   <path d="m39.688 19.844h6.6146v6.6146h-6.6146z"/>
   <path d="m39.688 13.229h6.6146v6.6146h-6.6146z"/>
  </g>
  <g fill="#e23838">
   <path d="m46.302 13.229h6.6146v6.6146h-6.6146z"/>
   <path d="m46.302 6.6146h6.6146v6.6146h-6.6146z"/>
   <path d="m33.073 6.6146h6.6146v6.6146h-6.6146z"/>
  </g>
  <g>
   <path d="m33.073 26.458h6.6146v6.6146h-6.6146z" fill="#cd1e1e"/>
   <path d="m39.688 26.458h6.6146v6.6146h-6.6146z" fill="#cd1e1e"/>
   <path d="m46.302 19.844h6.6146v6.6146h-6.6146z" fill="#e23838"/>
   <path d="m39.688 6.6146h6.6146v6.6146h-6.6146z" fill="#e23838"/>
  </g>
  <g fill="#cd1e1e">
   <path d="m33.073 13.229h6.6146v6.6146h-6.6146z"/>
   <path d="m13.229 13.229h6.6146v6.6146h-6.6146z"/>
   <path d="m13.229 13.229h6.6146v6.6146h-6.6146z"/>
   <path d="m19.844 19.844h6.6146v6.6146h-6.6146z"/>
  </g>
  <path d="m19.844 0h6.6146v6.6146h-6.6146z"/>
  <path d="m13.229 0h6.6146v6.6146h-6.6146z"/>
  <path d="m6.6146 0h6.6146v6.6146h-6.6146z"/>
  <path d="m0 13.229h6.6146v6.6146h-6.6146z"/>
  <path d="m6.6146 26.458h6.6146v6.6146h-6.6146z"/>
  <path d="m0 19.844h6.6146v6.6146h-6.6146z"/>
  <path d="m13.229 33.073h6.6146v6.6146h-6.6146z"/>
  <path d="m19.844 39.688h6.6146v6.6146h-6.6146z"/>
 </g>
</svg>
