<?xml version="1.0" encoding="UTF-8"?>
<!-- Created with Inkscape (http://www.inkscape.org/) -->
<svg width="200" height="225" version="1.1" viewBox="0 0 52.917 59.531" xmlns="http://www.w3.org/2000/svg">
 <g stroke-width="3">
  <g fill="#280b0b">
   <rect x="26.458" y="1.9228e-6" width="6.6146" height="6.6146"/>
   <rect x="19.844" y="2.3765e-6" width="6.6146" height="6.6146"/>
   <rect x="6.6146" y="13.229" width="6.6146" height="6.6146"/>
   <rect x="6.6146" y="33.073" width="6.6146" height="6.6146"/>
   <rect x="13.229" y="33.073" width="6.6146" height="6.6146"/>
   <rect x="13.229" y="46.302" width="6.6146" height="6.6146"/>
   <rect x="19.844" y="52.917" width="6.6146" height="6.6146"/>
   <rect x="13.229" y="52.917" width="6.6146" height="6.6146"/>
   <rect x="26.458" y="52.917" width="6.6146" height="6.6146"/>
   <rect x="33.073" y="46.302" width="6.6146" height="6.6146"/>
   <rect x="39.688" y="39.688" width="6.6146" height="6.6146"/>
   <rect x="33.073" y="1.9228e-6" width="6.6146" height="6.6146"/>
   <rect x="39.688" y="1.9228e-6" width="6.6146" height="6.6146"/>
   <rect x="46.302" y="1.9228e-6" width="6.6146" height="6.6146"/>
   <rect x="46.302" y="33.073" width="6.6146" height="6.6146"/>
   <rect x="39.688" y="26.458" width="6.6146" height="6.6146"/>
   <rect x="46.302" y="26.458" width="6.6146" height="6.6146"/>
   <rect x="19.844" y="39.688" width="6.6146" height="6.6146"/>
   <rect x="13.229" y="2.3765e-6" width="6.6146" height="6.6146"/>
   <rect x="13.229" y="6.6146" width="6.6146" height="6.6146"/>
   <rect x="46.302" y="6.6146" width="6.6146" height="6.6146"/>
   <rect x="39.688" y="13.229" width="6.6146" height="6.6146"/>
   <rect x="-6.1768e-8" y="26.458" width="6.6146" height="6.6146"/>
   <rect x="-6.1768e-8" y="33.073" width="6.6146" height="6.6146"/>
   <rect x="33.073" y="26.458" width="6.6146" height="6.6146"/>
   <rect x="33.073" y="19.844" width="6.6146" height="6.6146"/>
   <rect x="6.6146" y="19.844" width="6.6146" height="6.6146"/>
  </g>
  <rect x="19.844" y="6.6146" width="6.6146" height="6.6146" fill="#ffdf12"/>
  <rect x="26.458" y="6.6146" width="6.6146" height="6.6146" fill="#ffdf12"/>
  <rect x="33.073" y="6.6146" width="6.6146" height="6.6146" fill="#ffe540"/>
  <rect x="39.688" y="6.6146" width="6.6146" height="6.6146" fill="#ffe856"/>
  <rect x="13.229" y="13.229" width="6.6146" height="6.6146" fill="#f5d400"/>
  <rect x="19.844" y="13.229" width="6.6146" height="6.6146" fill="#ffdf12"/>
  <rect x="26.458" y="13.229" width="6.6146" height="6.6146" fill="#ffdf12"/>
  <rect x="33.073" y="13.229" width="6.6146" height="6.6146" fill="#ffe856"/>
  <rect x="13.229" y="19.844" width="6.6146" height="6.6146" fill="#f5d400"/>
  <rect x="19.844" y="19.844" width="6.6146" height="6.6146" fill="#ffdf12"/>
  <rect x="26.458" y="19.844" width="6.6146" height="6.6146" fill="#ffdf14"/>
  <rect x="6.6146" y="26.458" width="6.6146" height="6.6146" fill="#f5d400"/>
  <rect x="13.229" y="26.458" width="6.6146" height="6.6146" fill="#f5d400"/>
  <rect x="19.844" y="26.458" width="6.6146" height="6.6146" fill="#ffdf12"/>
  <rect x="26.458" y="26.458" width="6.6146" height="6.6146" fill="#ffdf12"/>
  <rect x="19.844" y="33.073" width="6.6146" height="6.6146" fill="#f5d400"/>
  <rect x="26.458" y="33.073" width="6.6146" height="6.6146" fill="#ffdf12"/>
  <rect x="33.073" y="33.073" width="6.6146" height="6.6146" fill="#ffe856"/>
  <rect x="39.688" y="33.073" width="6.6146" height="6.6146" fill="#ffe856"/>
  <rect x="33.073" y="39.688" width="6.6146" height="6.6146" fill="#ffdf12"/>
  <g fill="#f5d400">
   <rect x="26.458" y="39.688" width="6.6146" height="6.6146"/>
   <rect x="26.458" y="46.302" width="6.6146" height="6.6146"/>
   <rect x="19.844" y="46.302" width="6.6146" height="6.6146"/>
  </g>
 </g>
</svg>
