<?xml version="1.0" encoding="UTF-8"?>
<svg width="250" height="250" version="1.1" viewBox="0 0 66.146 66.146" xmlns="http://www.w3.org/2000/svg">
 <g stroke-width="3">
  <g fill="#2b0000">
   <rect x="19.844" y="13.229" width="6.6146" height="6.6146"/>
   <rect x="19.844" y="46.302" width="6.6146" height="6.6146"/>
   <rect x="26.458" y="52.917" width="6.6146" height="6.6146"/>
   <rect x="39.688" y="46.302" width="6.6146" height="6.6146"/>
   <rect x="13.229" y="19.844" width="6.6146" height="6.6146"/>
   <rect x="19.844" y="-1.7764e-15" width="6.6146" height="6.6146"/>
   <rect x="26.458" y="-7.6294e-6" width="6.6146" height="6.6146"/>
   <rect x="33.073" y="59.531" width="6.6146" height="6.6146"/>
   <rect x="39.688" y="59.531" width="6.6146" height="6.6146"/>
   <rect x="33.073" y="6.6146" width="6.6146" height="6.6146"/>
   <rect x="39.688" y="13.229" width="6.6146" height="6.6146"/>
   <rect x="46.302" y="19.844" width="6.6146" height="6.6146"/>
   <rect x="52.917" y="26.458" width="6.6146" height="6.6146"/>
   <rect x="26.458" y="6.6146" width="6.6146" height="6.6146"/>
   <rect x="6.6146" y="26.458" width="6.6146" height="6.6146"/>
   <rect x="6.6146" y="33.073" width="6.6146" height="6.6146"/>
   <rect x="13.229" y="39.687" width="6.6146" height="6.6146"/>
   <rect x="46.302" y="39.687" width="6.6146" height="6.6146"/>
   <rect x="52.917" y="33.073" width="6.6146" height="6.6146"/>
   <rect x="59.531" y="26.458" width="6.6146" height="6.6146"/>
   <rect x="59.531" y="19.844" width="6.6146" height="6.6146"/>
   <rect x="-6.1768e-8" y="33.073" width="6.6146" height="6.6146"/>
   <rect x="-6.1768e-8" y="39.687" width="6.6146" height="6.6146"/>
   <rect x="33.073" y="52.917" width="6.6146" height="6.6146"/>
  </g>
  <g fill="#9d774e">
   <rect x="33.073" y="19.844" width="6.6146" height="6.6146"/>
   <rect x="19.844" y="26.458" width="6.6146" height="6.6146"/>
   <rect x="26.458" y="39.688" width="6.6146" height="6.6146"/>
   <rect x="39.688" y="33.073" width="6.6146" height="6.6146"/>
  </g>
  <g fill="#2b0000">
   <rect x="39.688" y="19.844" width="6.6146" height="6.6146"/>
   <rect x="39.688" y="39.688" width="6.6146" height="6.6146"/>
   <rect x="19.844" y="39.688" width="6.6146" height="6.6146"/>
   <rect x="19.844" y="19.844" width="6.6146" height="6.6146"/>
  </g>
  <rect x="26.458" y="13.229" width="6.6146" height="6.6146" fill="#ffbb25"/>
  <rect x="26.458" y="19.844" width="6.6146" height="6.6146" fill="#ffbb25"/>
  <rect x="33.073" y="26.458" width="6.6146" height="6.6146" fill="#9d774e"/>
  <rect x="33.073" y="13.229" width="6.6146" height="6.6146" fill="#ffbb25"/>
  <rect x="26.458" y="26.458" width="6.6146" height="6.6146" fill="#9d774e"/>
  <rect x="26.458" y="33.073" width="6.6146" height="6.6146" fill="#9d774e"/>
  <g fill="#ffbb25">
   <rect x="19.844" y="33.073" width="6.6146" height="6.6146"/>
   <rect x="13.229" y="33.073" width="6.6146" height="6.6146"/>
   <rect x="13.229" y="26.458" width="6.6146" height="6.6146"/>
  </g>
  <rect x="33.073" y="33.073" width="6.6146" height="6.6146" fill="#9d774e"/>
  <g fill="#ffbb25">
   <rect x="33.073" y="39.688" width="6.6146" height="6.6146"/>
   <rect x="33.073" y="46.302" width="6.6146" height="6.6146"/>
   <rect x="26.458" y="46.302" width="6.6146" height="6.6146"/>
   <rect x="39.688" y="26.458" width="6.6146" height="6.6146"/>
   <rect x="46.302" y="26.458" width="6.6146" height="6.6146"/>
   <rect x="46.302" y="33.073" width="6.6146" height="6.6146"/>
  </g>
 </g>
</svg>
