<?xml version="1.0" encoding="UTF-8"?>
<!-- Created with Inkscape (http://www.inkscape.org/) -->
<svg width="325" height="325" version="1.1" viewBox="0 0 85.99 85.99" xmlns="http://www.w3.org/2000/svg">
 <g stroke-width="3">
  <g fill="#280b0b">
   <rect y="79.375" width="6.6146" height="6.6146"/>
   <rect x="6.6146" y="72.76" width="6.6146" height="6.6146"/>
   <rect x="6.6146" y="79.375" width="6.6146" height="6.6146"/>
   <rect y="72.76" width="6.6146" height="6.6146"/>
   <rect x="13.229" y="66.146" width="6.6146" height="6.6146"/>
   <rect x="13.229" y="72.76" width="6.6146" height="6.6146"/>
   <rect x="6.6146" y="66.146" width="6.6146" height="6.6146"/>
   <rect x="19.844" y="59.531" width="6.6146" height="6.6146"/>
   <rect x="19.844" y="66.146" width="6.6146" height="6.6146"/>
   <rect x="13.229" y="59.531" width="6.6146" height="6.6146"/>
   <rect x="26.458" y="52.917" width="6.6146" height="6.6146"/>
   <rect x="26.458" y="59.531" width="6.6146" height="6.6146"/>
   <rect x="19.844" y="52.917" width="6.6146" height="6.6146"/>
   <rect x="19.844" y="46.302" width="6.6146" height="6.6146"/>
   <rect x="33.073" y="59.531" width="6.6146" height="6.6146"/>
   <rect x="39.688" y="66.146" width="6.6146" height="6.6146"/>
  </g>
  <rect x="46.302" y="66.146" width="6.6146" height="6.6146" fill="#cdcdcd"/>
  <rect x="13.229" y="33.073" width="6.6146" height="6.6146" fill="#cdcdcd"/>
  <g fill="#280b0b">
   <rect x="46.302" y="72.76" width="6.6146" height="6.6146"/>
   <rect x="13.229" y="39.687" width="6.6146" height="6.6146"/>
   <rect x="6.6146" y="33.073" width="6.6146" height="6.6146"/>
   <rect x="26.458" y="39.687" width="6.6146" height="6.6146"/>
   <rect x="39.688" y="52.917" width="6.6146" height="6.6146"/>
   <rect x="33.073" y="46.302" width="6.6146" height="6.6146"/>
   <rect x="39.688" y="39.687" width="6.6146" height="6.6146"/>
   <rect x="33.073" y="33.073" width="6.6146" height="6.6146"/>
   <rect x="39.688" y="26.458" width="6.6146" height="6.6146"/>
   <rect x="46.302" y="19.844" width="6.6146" height="6.6146"/>
   <rect x="52.917" y="13.229" width="6.6146" height="6.6146"/>
   <rect x="59.531" y="6.6146" width="6.6146" height="6.6146"/>
   <rect x="46.302" y="46.302" width="6.6146" height="6.6146"/>
   <rect x="52.917" y="39.687" width="6.6146" height="6.6146"/>
   <rect x="59.531" y="33.073" width="6.6146" height="6.6146"/>
   <rect x="66.146" y="26.458" width="6.6146" height="6.6146"/>
   <rect x="72.76" y="19.844" width="6.6146" height="6.6146"/>
   <rect x="66.146" y="-2.8765e-6" width="6.6146" height="6.6146"/>
   <rect x="72.76" y="-2.8765e-6" width="6.6146" height="6.6146"/>
   <rect x="79.375" y="-2.8765e-6" width="6.6146" height="6.6146"/>
   <rect x="79.375" y="6.6146" width="6.6146" height="6.6146"/>
   <rect x="79.375" y="13.229" width="6.6146" height="6.6146"/>
   <rect x="46.302" y="33.073" width="6.6146" height="6.6146"/>
   <rect x="19.844" y="39.687" width="6.6146" height="6.6146"/>
   <rect x="39.688" y="59.531" width="6.6146" height="6.6146"/>
   <rect x="52.917" y="26.458" width="6.6146" height="6.6146"/>
  </g>
  <rect x="26.458" y="46.302" width="6.6146" height="6.6146" fill="#b4c9c5"/>
  <rect x="33.073" y="39.687" width="6.6146" height="6.6146" fill="#b4c9c5"/>
  <g fill="#cedcd9">
   <rect x="39.688" y="33.073" width="6.6146" height="6.6146"/>
   <rect x="52.917" y="19.844" width="6.6146" height="6.6146"/>
   <rect x="52.917" y="19.844" width="6.6146" height="6.6146"/>
   <rect x="46.302" y="26.458" width="6.6146" height="6.6146"/>
  </g>
  <rect x="66.146" y="13.229" width="6.6146" height="6.6146" fill="#bdd0ce"/>
  <g fill="#cedcd9">
   <rect x="59.531" y="26.458" width="6.6146" height="6.6146"/>
   <rect x="52.917" y="33.073" width="6.6146" height="6.6146"/>
   <rect x="46.302" y="39.687" width="6.6146" height="6.6146"/>
  </g>
  <rect x="39.688" y="46.302" width="6.6146" height="6.6146" fill="#b5c9c5"/>
  <rect x="33.073" y="52.917" width="6.6146" height="6.6146" fill="#b4c9c5"/>
  <g fill="#cedcd9">
   <rect x="66.146" y="19.844" width="6.6146" height="6.6146"/>
   <rect x="59.531" y="13.229" width="6.6146" height="6.6146"/>
   <rect x="66.146" y="6.6146" width="6.6146" height="6.6146"/>
  </g>
  <g>
   <rect x="72.76" y="6.6146" width="6.6146" height="6.6146" fill="#e7eeed"/>
   <rect x="72.76" y="13.229" width="6.6146" height="6.6146" fill="#cedcd9"/>
   <rect x="59.531" y="19.844" width="6.6146" height="6.6146" fill="#9ab7b0"/>
  </g>
 </g>
</svg>
