<?xml version="1.0" encoding="UTF-8"?>
<!-- Created with Inkscape (http://www.inkscape.org/) -->
<svg width="225" height="225" version="1.1" viewBox="0 0 59.531 59.531" xmlns="http://www.w3.org/2000/svg">
 <g fill="#280b0b" stroke-width="3">
  <rect width="6.6146" height="6.6146"/>
  <rect x="6.6146" y="6.6146" width="6.6146" height="6.6146"/>
  <rect x="13.229" y="13.229" width="6.6146" height="6.6146"/>
  <rect x="19.844" y="19.844" width="6.6146" height="6.6146"/>
  <rect x="33.073" y="33.073" width="6.6146" height="6.6146"/>
  <rect x="39.688" y="39.688" width="6.6146" height="6.6146"/>
  <rect x="39.688" y="39.688" width="6.6146" height="6.6146"/>
  <rect x="39.688" y="39.688" width="6.6146" height="6.6146"/>
  <rect x="46.302" y="46.302" width="6.6146" height="6.6146"/>
  <rect x="46.302" y="46.302" width="6.6146" height="6.6146"/>
  <rect x="52.917" y="52.917" width="6.6146" height="6.6146"/>
  <rect x="1.5442e-8" y="52.917" width="6.6146" height="6.6146"/>
  <rect x="6.6146" y="46.302" width="6.6146" height="6.6146"/>
  <rect x="13.229" y="39.688" width="6.6146" height="6.6146"/>
  <rect x="19.844" y="33.073" width="6.6146" height="6.6146"/>
  <rect x="33.073" y="19.844" width="6.6146" height="6.6146"/>
  <rect x="39.688" y="13.229" width="6.6146" height="6.6146"/>
  <rect x="46.302" y="6.6146" width="6.6146" height="6.6146"/>
  <rect x="52.917" y="2e-7" width="6.6146" height="6.6146"/>
  <rect x="26.458" y="26.458" width="6.6146" height="6.6146"/>
 </g>
</svg>
